
mtllib ice_magic_3d.mtl

v 0.000000 1.375000 0.000000
v 0.000000 -2.025000 0.000000
v 0.000000 -1.775000 0.060000
v 0.051962 -1.775000 0.030000
v 0.051962 -1.775000 -0.030000
v 0.000000 -1.775000 -0.060000
v -0.051962 -1.775000 -0.030000
v -0.051962 -1.775000 0.030000
v 0.000000 -1.835922 0.120000
v 0.103924 -1.835922 0.060000
v 0.103924 -1.835922 -0.060000
v 0.000000 -1.835922 -0.120000
v -0.103924 -1.835922 -0.060000
v -0.103924 -1.835922 0.060000
v 0.000000 0.975000 0.060000
v 0.051962 0.975000 0.030000
v 0.051962 0.975000 -0.030000
v 0.000000 0.975000 -0.060000
v -0.051962 0.975000 -0.030000
v -0.051962 0.975000 0.030000
v 0.000000 1.375000 0.060000
v 0.051962 1.375000 0.030000
v 0.051962 1.375000 -0.030000
v 0.000000 1.375000 -0.060000
v -0.051962 1.375000 -0.030000
v -0.051962 1.375000 0.030000
v 0.000000 1.137110 0.060000
v 0.051962 1.137110 0.030000
v 0.051962 1.137110 -0.030000
v 0.000000 1.137110 -0.060000
v -0.051962 1.137110 -0.030000
v -0.051962 1.137110 0.030000
v 0.000000 1.175000 0.120000
v 0.103924 1.175000 0.060000
v 0.103924 1.175000 -0.060000
v 0.000000 1.175000 -0.120000
v -0.103924 1.175000 -0.060000
v -0.103924 1.175000 0.060000
v 0.000000 1.075000 0.090000
v 0.077942 1.075000 0.045000
v 0.077942 1.075000 -0.045000
v 0.000000 1.075000 -0.090000
v -0.077942 1.075000 -0.045000
v -0.077942 1.075000 0.045000
v 0.000000 1.716400 0.084200
v 0.019040 1.728582 0.155134
v 0.028426 1.341772 0.208250
v 0.000000 1.742800 0.166600
v 0.000000 1.331400 0.233600
v 0.028358 1.277316 0.048450
v 0.000000 1.251800 0.058000
v 0.000000 1.305400 0.039400
v 0.000000 1.354200 0.181400
v 0.000000 1.714200 0.141600
v -0.028434 1.279886 0.048998
v -0.028366 1.343914 0.206732
v -0.019010 1.728346 0.153124
v -0.084200 1.716400 0.000000
v -0.155134 1.728582 0.019040
v -0.208250 1.341772 0.028426
v -0.166600 1.742800 0.000000
v -0.233600 1.331400 0.000000
v -0.048450 1.277316 0.028358
v -0.058000 1.251800 0.000000
v -0.039400 1.305400 0.000000
v -0.181400 1.354200 0.000000
v -0.141600 1.714200 0.000000
v -0.048998 1.279886 -0.028434
v -0.206732 1.343914 -0.028366
v -0.153124 1.728346 -0.019010
v 0.000000 1.716400 -0.084200
v -0.019040 1.728582 -0.155134
v -0.028426 1.341772 -0.208250
v 0.000000 1.742800 -0.166600
v 0.000000 1.331400 -0.233600
v -0.028358 1.277316 -0.048450
v 0.000000 1.251800 -0.058000
v 0.000000 1.305400 -0.039400
v 0.000000 1.354200 -0.181400
v 0.000000 1.714200 -0.141600
v 0.028434 1.279886 -0.048998
v 0.028366 1.343914 -0.206732
v 0.019010 1.728346 -0.153124
v 0.084200 1.716400 0.000000
v 0.155134 1.728582 -0.019040
v 0.208250 1.341772 -0.028426
v 0.166600 1.742800 0.000000
v 0.233600 1.331400 0.000000
v 0.048450 1.277316 -0.028358
v 0.058000 1.251800 0.000000
v 0.039400 1.305400 0.000000
v 0.181400 1.354200 0.000000
v 0.141600 1.714200 0.000000
v 0.048998 1.279886 0.028434
v 0.206732 1.343914 0.028366
v 0.153124 1.728346 0.019010
v 0.000000 2.075000 0.000000
v 0.000000 1.975000 0.060000
v 0.051962 1.975000 0.030000
v 0.051962 1.975000 -0.030000
v 0.000000 1.975000 -0.060000
v -0.051962 1.975000 -0.030000
v -0.051962 1.975000 0.030000
v 0.000000 1.375000 0.060000
v 0.051962 1.375000 0.030000
v 0.051962 1.375000 -0.030000
v 0.000000 1.375000 -0.060000
v -0.051962 1.375000 -0.030000
v -0.051962 1.375000 0.030000
v 0.000000 1.435000 0.120000
v 0.103924 1.435000 0.060000
v 0.103924 1.435000 -0.060000
v 0.000000 1.435000 -0.120000
v -0.103924 1.435000 -0.060000
v -0.103924 1.435000 0.060000

vt 0.18750 0.93750
vt 0.06250 0.93750
vt 0.06250 0.87500
vt 0.18750 0.87500
vt 0.31250 0.93750
vt 0.31250 0.87500
vt 0.43750 0.93750
vt 0.43750 0.87500
vt 0.12500 1.00000
vt 0.25000 1.00000
vt 0.37500 1.00000
vt 0.06250 0.31250
vt 0.18750 0.31250
vt 0.31250 0.31250
vt 0.43750 0.31250
vt 0.12500 0.12500
vt 0.18750 0.18750
vt 0.06250 0.18750
vt 0.25000 0.12500
vt 0.31250 0.18750
vt 0.37500 0.12500
vt 0.43750 0.18750
vt 0.06250 0.23704
vt 0.18750 0.23704
vt 0.18750 0.25000
vt 0.06250 0.25000
vt 0.31250 0.23704
vt 0.31250 0.25000
vt 0.43750 0.23704
vt 0.43750 0.25000
vt 0.18750 0.28970
vt 0.06250 0.28970
vt 0.31250 0.28970
vt 0.43750 0.28970
vt 0.37500 0.06250
vt 0.12500 0.06250
vt 0.37500 0.18750
vt 0.12500 0.18750
vt 0.25000 0.00000
vt 0.87500 0.06250
vt 0.93750 0.18750
vt 0.81250 0.18750
vt 0.81250 0.81250
vt 0.93750 0.81250
vt 0.93750 0.93750
vt 0.81250 0.93750

vn 0.00000 1.00000 0.00000
vn 0.73119 -0.53585 0.42216
vn 0.00000 0.39157 0.92015
vn 0.79687 0.39157 0.46008
vn 0.79687 0.39157 -0.46008
vn 0.00000 0.39157 -0.92015
vn -0.79687 0.39157 -0.46008
vn -0.79687 0.39157 0.46008
vn 0.00000 0.70170 0.71248
vn 0.61702 0.70170 0.35624
vn 0.61702 0.70170 -0.35624
vn 0.00000 0.70170 -0.71248
vn -0.61702 0.70170 -0.35624
vn -0.61702 0.70170 0.35624
vn 0.18943 -0.19054 0.96323
vn 0.73946 -0.19053 0.64567
vn 0.92890 -0.19053 -0.31756
vn 0.18943 -0.19054 -0.96323
vn -0.73946 -0.19053 -0.64567
vn -0.92890 -0.19053 0.31756
vn 0.00000 -0.84552 0.53395
vn 0.46241 -0.84552 0.26697
vn 0.46241 -0.84552 -0.26697
vn 0.00000 -0.84552 -0.53395
vn -0.46241 -0.84552 -0.26697
vn -0.46241 -0.84552 0.26697
vn 0.00000 0.28735 0.95783
vn 0.82950 0.28735 0.47891
vn 0.82950 0.28735 -0.47891
vn 0.00000 0.28735 -0.95783
vn -0.82950 0.28735 -0.47891
vn -0.82950 0.28735 0.47891
vn 0.49874 0.07094 0.86384
vn 0.99748 0.07094 0.00000
vn 0.49874 0.07094 -0.86384
vn -0.49874 0.07094 -0.86384
vn -0.99748 0.07094 0.00000
vn -0.60850 -0.79297 -0.03039
vn 0.60901 0.12553 0.78317
vn 0.70977 -0.33323 0.62064
vn 0.63519 -0.70967 0.30479
vn -0.62721 0.72890 -0.27442
vn -0.70627 0.36398 -0.60721
vn -0.60863 -0.09200 -0.78810
vn 0.03039 -0.79297 -0.60850
vn -0.78317 0.12553 0.60901
vn -0.62064 -0.33323 0.70977
vn -0.30479 -0.70967 0.63519
vn 0.27442 0.72890 -0.62721
vn 0.60721 0.36398 -0.70627
vn 0.78810 -0.09200 -0.60864
vn 0.60850 -0.79297 0.03039
vn -0.60901 0.12553 -0.78317
vn -0.70977 -0.33323 -0.62064
vn -0.63519 -0.70967 -0.30479
vn 0.62721 0.72890 0.27442
vn 0.70627 0.36398 0.60721
vn 0.60864 -0.09200 0.78810
vn -0.03039 -0.79297 0.60850
vn 0.78317 0.12553 -0.60901
vn 0.62064 -0.33323 -0.70977
vn 0.30479 -0.70967 -0.63519
vn -0.27442 0.72890 0.62721
vn -0.60721 0.36398 0.70627
vn -0.78810 -0.09200 0.60863
vn 0.74261 0.51450 0.42875
vn 0.00000 0.32320 0.94633
vn 0.81955 0.32320 0.47317
vn 0.81955 0.32320 -0.47317
vn 0.00000 0.32320 -0.94633
vn -0.81955 0.32320 -0.47317
vn -0.81955 0.32320 0.47317
vn 0.00000 -0.70711 0.70711
vn 0.61237 -0.70711 0.35355
vn 0.61237 -0.70711 -0.35355
vn 0.00000 -0.70711 -0.70711
vn -0.61237 -0.70711 -0.35355
vn -0.61237 -0.70711 0.35355
vn 0.19619 -0.47838 0.85596
vn 0.64318 -0.47838 0.59789
vn 0.83938 -0.47838 -0.25807
vn 0.19619 -0.47838 -0.85596
vn -0.64318 -0.47838 -0.59789
vn -0.83938 -0.47838 0.25807
vn 0.00000 -0.53585 0.84431
vn 0.73119 -0.53585 -0.42216
vn 0.00000 -0.53585 -0.84431
vn -0.73119 -0.53585 -0.42216
vn -0.73119 -0.53585 0.42216
vn 1.00000 0.00000 0.00000
vn 0.50000 0.00000 -0.86603
vn -0.50000 0.00000 -0.86603
vn -1.00000 0.00000 0.00000
vn -0.50000 0.00000 0.86603
vn 0.00000 0.43493 0.90046
vn 0.77983 0.43493 0.45023
vn 0.77983 0.43493 -0.45023
vn 0.00000 0.43493 -0.90046
vn -0.77983 0.43493 -0.45023
vn -0.77983 0.43493 0.45023
vn -0.49874 0.07094 0.86384
vn 0.66490 0.69926 -0.26256
vn 0.73929 0.34591 -0.57775
vn 0.64384 -0.08691 -0.76021
vn -0.74254 -0.31491 0.59115
vn -0.67163 -0.68037 0.29328
vn -0.64467 0.12212 0.75465
vn 0.61602 -0.78715 -0.03017
vn 0.00773 0.95229 -0.30510
vn 0.46649 0.84235 -0.26988
vn -0.45276 0.84911 -0.27205
vn 0.26256 0.69926 0.66490
vn 0.57775 0.34591 0.73929
vn 0.76021 -0.08691 0.64384
vn -0.59115 -0.31491 -0.74254
vn -0.29328 -0.68037 -0.67163
vn -0.75465 0.12212 -0.64467
vn 0.03017 -0.78715 0.61602
vn 0.30510 0.95229 0.00773
vn 0.26988 0.84235 0.46649
vn 0.27205 0.84911 -0.45276
vn -0.66490 0.69926 0.26256
vn -0.73929 0.34591 0.57775
vn -0.64384 -0.08691 0.76021
vn 0.74254 -0.31491 -0.59115
vn 0.67163 -0.68037 -0.29328
vn 0.64467 0.12212 -0.75465
vn -0.61602 -0.78715 0.03017
vn -0.00773 0.95229 0.30510
vn -0.46649 0.84235 0.26988
vn 0.45276 0.84911 0.27205
vn -0.26256 0.69926 -0.66490
vn -0.57775 0.34591 -0.73929
vn -0.76021 -0.08691 -0.64384
vn 0.59115 -0.31491 0.74254
vn 0.29328 -0.68037 0.67163
vn 0.75465 0.12212 0.64467
vn -0.03017 -0.78715 -0.61602
vn -0.30510 0.95229 -0.00773
vn -0.26988 0.84235 -0.46649
vn -0.27205 0.84911 0.45276
vn 0.00000 0.51450 -0.85749
vn -0.74261 0.51450 0.42875
vn 0.99540 0.09578 0.00000
vn 0.49770 0.09578 -0.86205
vn -0.49770 0.09578 -0.86205
vn -0.99540 0.09578 0.00000
vn -0.49770 0.09578 0.86205

usemtl mat1
f 4/4/4 3/3/3 9/2/9 10/1/10
f 5/6/5 4/4/4 10/1/10 11/5/11
f 6/8/6 5/6/5 11/5/11 12/7/12
f 7/6/7 6/8/6 12/7/12 13/5/13
f 8/4/8 7/6/7 13/5/13 14/1/14
f 3/3/3 8/4/8 14/1/14 9/2/9
f 10/1/2 9/2/85 2/9/2
f 11/5/86 10/1/2 2/10/2
f 12/7/87 11/5/86 2/11/87
f 13/5/88 12/7/87 2/11/87
f 14/1/89 13/5/88 2/10/89
f 9/2/85 14/1/89 2/9/89
f 3/3/3 4/4/4 16/13/16 15/12/15
f 4/4/4 5/6/5 17/14/17 16/13/90
f 5/6/5 6/8/6 18/15/18 17/14/91
f 6/8/6 7/6/7 19/14/19 18/15/92
f 7/6/7 8/4/8 20/13/20 19/14/93
f 8/4/8 3/3/3 15/12/94 20/13/94
f 21/18/1 22/17/1 1/16/1
f 22/17/1 23/20/1 1/19/1
f 23/20/1 24/22/1 1/21/1
f 24/22/1 25/20/1 1/21/1
f 25/20/1 26/17/1 1/19/1
f 26/17/1 21/18/1 1/16/1
f 34/24/28 22/17/28 21/18/27 33/23/27
f 27/26/21 28/25/22 34/24/22 33/23/21
f 35/27/29 23/20/29 22/17/28 34/24/28
f 28/25/22 29/28/23 35/27/23 34/24/22
f 36/29/30 24/22/30 23/20/29 35/27/29
f 29/28/23 30/30/24 36/29/24 35/27/23
f 37/27/31 25/20/31 24/22/30 36/29/30
f 30/30/24 31/28/25 37/27/25 36/29/24
f 38/24/32 26/17/32 25/20/31 37/27/31
f 31/28/25 32/25/26 38/24/26 37/27/25
f 33/23/27 21/18/27 26/17/32 38/24/32
f 32/25/26 27/26/21 33/23/21 38/24/26
f 39/32/33 15/12/15 16/13/16 40/31/33
f 28/25/96 27/26/95 39/32/33 40/31/33
f 40/31/34 16/13/16 17/14/17 41/33/34
f 29/28/97 28/25/96 40/31/34 41/33/34
f 41/33/35 17/14/17 18/15/18 42/34/35
f 30/30/98 29/28/97 41/33/35 42/34/35
f 42/34/36 18/15/18 19/14/19 43/33/36
f 31/28/99 30/30/98 42/34/36 43/33/36
f 43/33/37 19/14/19 20/13/20 44/31/37
f 32/25/100 31/28/99 43/33/37 44/31/37
f 44/31/101 20/13/20 15/12/15 39/32/101
f 27/26/95 32/25/100 44/31/101 39/32/101
f 48/36/39 49/16/40 47/21/40 46/35/39
f 49/16/40 51/38/41 50/37/41 47/21/40
f 55/37/42 56/21/43 53/16/43 52/38/42
f 56/21/43 57/35/44 54/36/44 53/16/43
f 53/16/103 47/21/103 50/37/102 52/38/102
f 54/36/104 46/35/104 47/21/103 53/16/103
f 55/37/106 51/38/106 49/16/105 56/21/105
f 56/21/105 49/16/105 48/36/107 57/35/107
f 54/36/38 57/35/38 45/39/38
f 46/35/108 54/36/108 45/39/108
f 48/36/109 46/35/110 45/39/109
f 57/35/111 48/36/109 45/39/109
f 61/36/46 62/16/47 60/21/47 59/35/46
f 62/16/47 64/38/48 63/37/48 60/21/47
f 68/37/49 69/21/50 66/16/50 65/38/49
f 69/21/50 70/35/51 67/36/51 66/16/50
f 66/16/113 60/21/113 63/37/112 65/38/112
f 67/36/114 59/35/114 60/21/113 66/16/113
f 68/37/116 64/38/116 62/16/115 69/21/115
f 69/21/115 62/16/115 61/36/117 70/35/117
f 67/36/45 70/35/45 58/39/45
f 59/35/118 67/36/118 58/39/118
f 61/36/119 59/35/120 58/39/119
f 70/35/121 61/36/119 58/39/119
f 74/36/53 75/16/54 73/21/54 72/35/53
f 75/16/54 77/38/55 76/37/55 73/21/54
f 81/37/56 82/21/57 79/16/57 78/38/56
f 82/21/57 83/35/58 80/36/58 79/16/57
f 79/16/123 73/21/123 76/37/122 78/38/122
f 80/36/124 72/35/124 73/21/123 79/16/123
f 81/37/126 77/38/126 75/16/125 82/21/125
f 82/21/125 75/16/125 74/36/127 83/35/127
f 80/36/52 83/35/52 71/39/52
f 72/35/128 80/36/128 71/39/128
f 74/36/129 72/35/130 71/39/129
f 83/35/131 74/36/129 71/39/129
f 87/36/60 88/16/61 86/21/61 85/35/60
f 88/16/61 90/38/62 89/37/62 86/21/61
f 94/37/63 95/21/64 92/16/64 91/38/63
f 95/21/64 96/35/65 93/36/65 92/16/64
f 92/16/133 86/21/133 89/37/132 91/38/132
f 93/36/134 85/35/134 86/21/133 92/16/133
f 94/37/136 90/38/136 88/16/135 95/21/135
f 95/21/135 88/16/135 87/36/137 96/35/137
f 93/36/59 96/35/59 84/39/59
f 85/35/138 93/36/138 84/39/138
f 87/36/139 85/35/140 84/39/139
f 96/35/141 87/36/139 84/39/139
f 98/42/67 99/41/68 97/40/66
f 99/42/68 100/41/69 97/40/66
f 100/42/69 101/41/70 97/40/142
f 101/42/70 102/41/71 97/40/142
f 102/42/71 103/41/72 97/40/143
f 103/42/72 98/41/67 97/40/143
f 111/44/80 99/41/68 98/42/67 110/43/79
f 104/46/73 105/45/74 111/44/80 110/43/79
f 112/44/81 100/41/69 99/42/68 111/43/144
f 105/46/74 106/45/75 112/44/81 111/43/80
f 113/44/82 101/41/70 100/42/69 112/43/145
f 106/46/75 107/45/76 113/44/82 112/43/81
f 114/44/83 102/41/71 101/42/70 113/43/146
f 107/46/76 108/45/77 114/44/83 113/43/82
f 115/44/84 103/41/72 102/42/71 114/43/147
f 108/46/77 109/45/78 115/44/84 114/43/83
f 110/44/148 98/41/67 103/42/72 115/43/148
f 109/46/78 104/45/73 110/44/79 115/43/84

